# xmcd
#
# Track frame offsets: 
#        150
#        15925
#        32266
#        47327
#        64481
#        83143
#        97143
#        116071
#        136911
#        157147
#        176142
#        197499
#        213771
#
# Disc length: 3048 seconds
#
# Revision: 0
# Processed by: cddbd v1.5.2PL0 Copyright (c) Steve Scherf et al.
# Submitted via: ExactAudioCopyFreeDBPlugin 1.0
#
DISCID=a80be60d
DTITLE=La Banda Del Sol Naciente  - Volver Empezar
DYEAR=1998
DGENRE=tropical
TTITLE0=Volver a Empezar
TTITLE1=El Avión
TTITLE2=Cuando los Sapos bailen Flamenco
TTITLE3=Los Recuerdos
TTITLE4=Mi Amor, mi Gran Locura
TTITLE5=Cambias mi Amor
TTITLE6=Hipocresia - Por Ella
TTITLE7=Desnúdate
TTITLE8=Amor no me Ignores
TTITLE9=Weekend
TTITLE10=Amiga Mia
TTITLE11=Yo soy Aquel
TTITLE12=Mal Agredcida - Te digo que no es Verdad
EXTD=
EXTT0=
EXTT1=
EXTT2=
EXTT3=
EXTT4=
EXTT5=
EXTT6=
EXTT7=
EXTT8=
EXTT9=
EXTT10=
EXTT11=
EXTT12=
PLAYORDER=
